<?xml version="1.0" encoding="UTF-8" standalone="no"?>
<svg
   xmlns:dc="http://purl.org/dc/elements/1.1/"
   xmlns:cc="http://creativecommons.org/ns#"
   xmlns:rdf="http://www.w3.org/1999/02/22-rdf-syntax-ns#"
   xmlns:svg="http://www.w3.org/2000/svg"
   xmlns="http://www.w3.org/2000/svg"
   xmlns:xlink="http://www.w3.org/1999/xlink"
   viewBox="0 0 26.600031 97.971336"
   height="97.971336"
   width="26.600031"
   xml:space="preserve"
   version="1.1"
   id="svg21005">
   <defs id="defs21009">
   		<pattern id="lhash" width="2" height="10" x="0" y="0" patternUnits="userSpaceOnUse">
     		<rect fill="black" width="1" height="10" /><rect fill="grey" width="1" height="10" />
 		</pattern>
 	</defs>
 	<g
     transform="matrix(1.25,0,0,-1.25,-294.87498,641.27134)"
     id="g21013">
     	<g id="lclose">
	 		<path
	 			d="m 239.76,434.64 13.56,13.56 0,60.84 -13.56,-13.44 0,-60.96"
	     		style="fill:url(#lhash);fill-opacity:1;fill-rule:evenodd;stroke:none"
	     		 />

	     	<path
	         id="path29245"
	         style="fill:#000000;fill-opacity:1;fill-rule:evenodd;stroke:none"
	         d="m 243.12,478.68 c 0.84,0.84 1.8,1.8 2.64,2.64 0,-6 0,-11.88 0,-17.88 1.32,1.32 2.76,2.76 4.08,4.08 0,-1.92 0,-3.84 0,-5.88 -2.16,-2.16 -4.44,-4.44 -6.72,-6.72 0,7.92 0,15.84 0,23.76" />
	        <path
	         id="path29247"
	         style="fill:none;stroke:#000000;stroke-width:0.70504802;stroke-linecap:round;stroke-linejoin:round;stroke-miterlimit:10;stroke-dasharray:none;stroke-opacity:1"
	         d="m 243.12,478.68 c 0.84,0.84 1.8,1.8 2.64,2.64 0,-6 0,-11.88 0,-17.88 1.32,1.32 2.76,2.76 4.08,4.08 0,-1.92 0,-3.84 0,-5.88 -2.16,-2.16 -4.44,-4.44 -6.72,-6.72 0,7.92 0,15.84 0,23.76 z" />
	     </g>
	     <path
     		d="m 236.4,492.12 20.28,20.4"
     		style="fill:none;stroke:#000000;stroke-width:1.41009474;stroke-linecap:butt;stroke-linejoin:round;stroke-miterlimit:10;stroke-dasharray:none;stroke-opacity:1"
     		id="path28553" />
	 </g>
</svg>