<?xml version="1.0" encoding="UTF-8" standalone="no"?>
<!-- Created with Inkscape (http://www.inkscape.org/) -->

<svg
   xmlns:dc="http://purl.org/dc/elements/1.1/"
   xmlns:cc="http://creativecommons.org/ns#"
   xmlns:rdf="http://www.w3.org/1999/02/22-rdf-syntax-ns#"
   xmlns:svg="http://www.w3.org/2000/svg"
   xmlns="http://www.w3.org/2000/svg"
   xmlns:xlink="http://www.w3.org/1999/xlink"
   xmlns:sodipodi="http://sodipodi.sourceforge.net/DTD/sodipodi-0.dtd"
   xmlns:inkscape="http://www.inkscape.org/namespaces/inkscape"
   id="svg21005"
   version="1.1"
   inkscape:version="0.91 r13725"
   xml:space="preserve"
   width="26.746359"
   height="97.973274"
   viewBox="0 0 26.746358 97.973275"
   sodipodi:docname="leftShutter.svg"><defs
     id="defs21009"><pattern id="hashr" width="2" height="10" x="0" y="0" patternUnits="userSpaceOnUse">
      <rect fill="black" width="1" height="10" /><rect fill="grey" width="1" height="10" />
  </pattern></defs><g
     id="g21013"
     inkscape:groupmode="layer"
     inkscape:label="MixinLWC11"
     transform="matrix(1.25,0,0,-1.25,-472.47682,641.27318)"><g
       id="rclose"
       inkscape:label="#g86314"><path
         inkscape:connector-curvature="0"
         style="fill:url(#hashr);fill-opacity:1;fill-rule:evenodd;stroke:none"
         d="m 381.84,434.64 13.56,13.56 0,60.84 -13.56,-13.44 0,-60.96" /><path
         inkscape:connector-curvature="0"
         id="path28751"
         style="fill:none;stroke:#000000;stroke-width:0.0001464;stroke-linecap:round;stroke-linejoin:round;stroke-miterlimit:10;stroke-dasharray:none;stroke-opacity:1"
         d="m 381.84,434.64 13.56,13.56 0,60.84 -13.56,-13.44 0,-60.96 z" /><path
         d="m 385.2,454.92 c 0,7.92 0,15.84 0,23.76 1.2,1.2 2.4,2.4 3.6,3.48 0.72,0.72 1.2,0.96 1.56,0.96 0.36,-0.12 0.6,-0.48 0.84,-1.32 0.24,-0.84 0.36,-2.04 0.36,-3.6 0,-1.2 -0.12,-2.52 -0.24,-3.6 -0.24,-1.08 -0.48,-2.16 -0.72,-3 -0.24,-0.6 -0.48,-1.08 -0.72,-1.68 0.24,0 0.36,-0.12 0.48,-0.36 0.12,-0.12 0.24,-0.36 0.36,-0.84 0.12,-0.48 0.24,-0.96 0.36,-1.2 0.24,-1.92 0.6,-3.84 0.96,-5.88 -0.72,-0.72 -1.56,-1.56 -2.4,-2.4 -0.36,2.04 -0.72,4.08 -1.08,6.12 -0.24,0.84 -0.36,1.32 -0.48,1.44 -0.12,0.24 -0.24,0.24 -0.48,0.12 -0.12,-0.12 -0.12,-0.12 -0.24,-0.24 0,-3.24 0,-6.36 0,-9.6 -0.72,-0.72 -1.44,-1.44 -2.16,-2.16 z m 2.16,16.32 c 0.36,0.24 0.6,0.48 0.96,0.84 0.12,0.12 0.24,0.36 0.6,0.84 0.12,0.24 0.24,0.6 0.36,1.08 0,0.48 0.12,1.08 0.12,1.56 0,0.72 -0.12,1.32 -0.24,1.56 -0.12,0.24 -0.48,0.24 -0.84,-0.24 -0.24,-0.24 -0.6,-0.6 -0.96,-0.84 0,-1.68 0,-3.24 0,-4.8"
         style="fill:#000000;fill-opacity:1;fill-rule:evenodd;stroke:none"
         id="path29249"
         inkscape:connector-curvature="0" /><path
         d="m 385.2,454.92 c 0,7.92 0,15.84 0,23.76 1.2,1.2 2.4,2.4 3.6,3.48 0.72,0.72 1.2,0.96 1.56,0.96 0.36,-0.12 0.6,-0.48 0.84,-1.32 0.24,-0.84 0.36,-2.04 0.36,-3.6 0,-1.2 -0.12,-2.52 -0.24,-3.6 -0.24,-1.08 -0.48,-2.16 -0.72,-3 -0.24,-0.6 -0.48,-1.08 -0.72,-1.68 0.24,0 0.36,-0.12 0.48,-0.36 0.12,-0.12 0.24,-0.36 0.36,-0.84 0.12,-0.48 0.24,-0.96 0.36,-1.2 0.24,-1.92 0.6,-3.84 0.96,-5.88 -0.72,-0.72 -1.56,-1.56 -2.4,-2.4 -0.36,2.04 -0.72,4.08 -1.08,6.12 -0.24,0.84 -0.36,1.32 -0.48,1.44 -0.12,0.24 -0.24,0.24 -0.48,0.12 -0.12,-0.12 -0.12,-0.12 -0.24,-0.24 0,-3.24 0,-6.36 0,-9.6 -0.72,-0.72 -1.44,-1.44 -2.16,-2.16 z"
         style="fill:none;stroke:#000000;stroke-width:0.70504802;stroke-linecap:round;stroke-linejoin:round;stroke-miterlimit:10;stroke-dasharray:none;stroke-opacity:1"
         id="path29251"
         inkscape:connector-curvature="0" /><path
         d="m 387.36,471.24 c 0.36,0.24 0.6,0.48 0.96,0.84 0.12,0.12 0.24,0.36 0.6,0.84 0.12,0.24 0.24,0.6 0.36,1.08 0,0.48 0.12,1.08 0.12,1.56 0,0.72 -0.12,1.32 -0.24,1.56 -0.12,0.24 -0.48,0.24 -0.84,-0.24 -0.24,-0.24 -0.6,-0.6 -0.96,-0.84 0,-1.68 0,-3.24 0,-4.8 z"
         style="fill:none;stroke:#000000;stroke-width:0.70504802;stroke-linecap:round;stroke-linejoin:round;stroke-miterlimit:10;stroke-dasharray:none;stroke-opacity:1"
         id="path29253"
         inkscape:connector-curvature="0" /></g><path
         inkscape:connector-curvature="0"
         id="path28763"
         style="fill:none;stroke:#000000;stroke-width:1.41009474;stroke-linecap:butt;stroke-linejoin:round;stroke-miterlimit:10;stroke-dasharray:none;stroke-opacity:1"
         d="m 378.48,492.12 20.4,20.4" /></g></svg>