<?xml version="1.0" encoding="UTF-8" standalone="no"?>
<!-- Created with Inkscape (http://www.inkscape.org/) -->

<svg
   xmlns:dc="http://purl.org/dc/elements/1.1/"
   xmlns:cc="http://creativecommons.org/ns#"
   xmlns:rdf="http://www.w3.org/1999/02/22-rdf-syntax-ns#"
   xmlns:svg="http://www.w3.org/2000/svg"
   xmlns="http://www.w3.org/2000/svg"
   xmlns:xlink="http://www.w3.org/1999/xlink"
   xmlns:sodipodi="http://sodipodi.sourceforge.net/DTD/sodipodi-0.dtd"
   xmlns:inkscape="http://www.inkscape.org/namespaces/inkscape"
   id="svg21005"
   version="1.1"
   inkscape:version="0.91 r13725"
   xml:space="preserve"
   width="51.58131"
   height="68.537582"
   viewBox="0 0 51.58131 68.537583"
   sodipodi:docname="syringe.svg"><g
     id="syringe"
     inkscape:groupmode="layer"
     inkscape:label="MixinLWC11"
     transform="matrix(1.25,0,0,-1.25,-320.40934,615.59066)"><path
         inkscape:connector-curvature="0"
         id="needle"
         style="fill:none;stroke:#000000;stroke-width:0.70504802;stroke-linecap:round;stroke-linejoin:round;stroke-miterlimit:10;stroke-dasharray:none;stroke-opacity:1"
         d="m 277.08,438 -0.12,13.56"
         inkscape:label="#path28647" /><path
         inkscape:connector-curvature="0"
         id="path28649"
         style="fill:#ffffff;fill-opacity:1;fill-rule:evenodd;stroke:none"
         d="m 276.96,458.28 c -3.72,0 -6.72,-1.44 -6.72,-3.36 0,-1.8 3,-3.36 6.72,-3.36 3.72,0 6.72,1.56 6.72,3.36 0,1.92 -3,3.36 -6.72,3.36" /><path xmlns="http://www.w3.org/2000/svg" xmlns:inkscape="http://www.inkscape.org/namespaces/inkscape" inkscape:connector-curvature="0" style="fill: #FFFFFF" d="m 270.24,454.92 0,23.76 13.44,0 0,-23.76"/><g
         inkscape:label="#g87182"><path
           d="m 276.96,458.28 c -3.72,0 -6.72,-1.44 -6.72,-3.36 0,-1.8 3,-3.36 6.72,-3.36 3.72,0 6.72,1.56 6.72,3.36 0,1.92 -3,3.36 -6.72,3.36 z"
           style="fill:purple;stroke:#000000;stroke-width:0.70504802;stroke-linecap:round;stroke-linejoin:round;stroke-miterlimit:10;stroke-dasharray:none;stroke-opacity:1"
           id="syringebt"
           inkscape:connector-curvature="0" />
           <rect id="syringebk" style="fill:purple;" x="270.12" y="454.92" width="13.56" height="20"/></g>
        <path xmlns="http://www.w3.org/2000/svg" xmlns:inkscape="http://www.inkscape.org/namespaces/inkscape" inkscape:connector-curvature="0" id="path28659" style="fill:none;stroke:#000000;stroke-width:0.70504802;stroke-linecap:round;stroke-linejoin:round;stroke-miterlimit:10;stroke-dasharray:none;stroke-opacity:1;" d="m 270.24,454.92 0,23.76 13.44,0 0,-23.76"/><path
         inkscape:connector-curvature="0"
         id="path28663"
         style="fill:#ffffff;fill-opacity:1;fill-rule:evenodd;stroke:none"
         d="m 276.96,485.4 c -5.64,0 -10.2,-2.28 -10.2,-5.04 0,-2.88 4.56,-5.16 10.2,-5.16 5.64,0 10.2,2.28 10.2,5.16 0,2.76 -4.56,5.04 -10.2,5.04" /><path
         inkscape:connector-curvature="0"
         id="path28665"
         style="fill:none;stroke:#000000;stroke-width:0.70504802;stroke-linecap:round;stroke-linejoin:round;stroke-miterlimit:10;stroke-dasharray:none;stroke-opacity:1"
         d="m 276.96,485.4 c -5.64,0 -10.2,-2.28 -10.2,-5.04 0,-2.88 4.56,-5.16 10.2,-5.16 5.64,0 10.2,2.28 10.2,5.16 0,2.76 -4.56,5.04 -10.2,5.04 z" /><g
         id="filterA"
         inkscape:label="#g87174"><path
           d="m 263.4,458.28 c -3.72,0 -6.72,-1.44 -6.72,-3.36 0,-1.8 3,-3.36 6.72,-3.36 3.72,0 6.84,1.56 6.84,3.36 0,1.92 -3.12,3.36 -6.84,3.36 z"
           style="fill:none;stroke:#000000;stroke-width:0.70504802;stroke-linecap:round;stroke-linejoin:round;stroke-miterlimit:10;stroke-dasharray:none;stroke-opacity:1"
           id="filterAbk"
           inkscape:connector-curvature="0"
           inkscape:label="#path28655" /><path
           d="m 259.2,453.48 c 2.16,1.2 4.32,2.28 6.48,3.48 0.36,0 0.6,0 0.96,0 -0.48,-1.2 -0.84,-2.28 -1.2,-3.48 -0.36,0 -0.72,0 -0.96,0 0.12,0.36 0.24,0.72 0.36,1.08 -0.96,0 -1.92,0 -2.76,0 -0.72,-0.36 -1.32,-0.72 -1.92,-1.08 -0.36,0 -0.6,0 -0.96,0 z m 3.48,1.44 c 0.84,0 1.56,0 2.28,0 0.12,0.36 0.24,0.6 0.36,0.96 0.12,0.24 0.24,0.48 0.36,0.72 -0.36,-0.24 -0.72,-0.48 -1.08,-0.72 -0.6,-0.24 -1.2,-0.6 -1.92,-0.96"
           style="fill:#000000;fill-opacity:1;fill-rule:evenodd;stroke:none"
           id="path28759"
           inkscape:connector-curvature="0" /></g><g
         id="filterB"
         inkscape:label="#g87178"><path
           d="m 290.52,458.28 c -3.72,0 -6.84,-1.44 -6.84,-3.36 0,-1.8 3.12,-3.36 6.84,-3.36 3.72,0 6.72,1.56 6.72,3.36 0,1.92 -3,3.36 -6.72,3.36 z"
           style="fill:none;stroke:#000000;stroke-width:0.70504802;stroke-linecap:round;stroke-linejoin:round;stroke-miterlimit:10;stroke-dasharray:none;stroke-opacity:1"
           id="filterBbk"
           inkscape:connector-curvature="0"
           inkscape:label="#path28653" /><path
           d="m 285.24,453.48 c 1.2,1.2 2.52,2.28 3.84,3.48 1.08,0 2.04,0 3.12,0 0.6,0 1.08,-0.12 1.32,-0.12 0.36,-0.12 0.48,-0.24 0.6,-0.36 0,-0.12 0,-0.24 -0.24,-0.48 -0.12,-0.12 -0.36,-0.24 -0.72,-0.36 -0.36,-0.12 -0.72,-0.24 -1.2,-0.36 0.36,0 0.6,-0.12 0.72,-0.24 0.12,-0.12 0.12,-0.36 -0.12,-0.48 -0.24,-0.24 -0.48,-0.36 -0.84,-0.48 -0.24,-0.12 -0.6,-0.24 -0.96,-0.36 -0.24,0 -0.6,-0.12 -1.08,-0.12 -0.36,0 -0.84,-0.12 -1.32,-0.12 -1.08,0 -2.16,0 -3.12,0 z m 3.24,2.04 c 0.6,0 1.2,0 1.8,0 0.48,0 0.84,0 1.08,0 0.36,0 0.6,0.12 0.84,0.24 0.24,0 0.48,0.12 0.6,0.24 0.12,0.12 0.12,0.24 0.12,0.24 0,0.12 -0.12,0.24 -0.36,0.24 -0.24,0 -0.6,0 -1.2,0 -0.6,0 -1.08,0 -1.68,0 -0.36,-0.36 -0.72,-0.6 -1.2,-0.96 z m -1.8,-1.56 c 0.72,0 1.44,0 2.16,0 0.24,0 0.6,0 0.72,0 0.24,0 0.48,0 0.72,0.12 0.24,0 0.48,0.12 0.6,0.12 0.24,0.12 0.36,0.24 0.48,0.36 0.24,0.12 0.24,0.24 0.12,0.24 0,0.12 -0.12,0.24 -0.36,0.24 -0.24,0 -0.6,0 -1.2,0 -0.6,0 -1.2,0 -1.8,0 -0.48,-0.36 -0.96,-0.72 -1.44,-1.08"
           style="fill:#000000;fill-opacity:1;fill-rule:evenodd;stroke:none"
           id="path28761"
           inkscape:connector-curvature="0" /></g><path
         inkscape:connector-curvature="0"
         id="path28765"
         style="fill:#ffffff;fill-opacity:1;fill-rule:evenodd;stroke:none"
         d="m 276.96,482.04 c -1.92,0 -3.36,-0.84 -3.36,-1.68 0,-0.96 1.44,-1.68 3.36,-1.68 1.92,0 3.36,0.72 3.36,1.68 0,0.84 -1.44,1.68 -3.36,1.68" /><path
         inkscape:connector-curvature="0"
         id="path28767"
         style="fill:none;stroke:#000000;stroke-width:0.70504802;stroke-linecap:round;stroke-linejoin:round;stroke-miterlimit:10;stroke-dasharray:none;stroke-opacity:1"
         d="m 276.96,482.04 c -1.92,0 -3.36,-0.84 -3.36,-1.68 0,-0.96 1.44,-1.68 3.36,-1.68 1.92,0 3.36,0.72 3.36,1.68 0,0.84 -1.44,1.68 -3.36,1.68 z" /><path
         inkscape:connector-curvature="0"
         id="path28769"
         style="fill:#ffffff;fill-opacity:1;fill-rule:evenodd;stroke:none"
         d="m 273.48,480.84 6.84,0 0,4.56 -6.84,0 0,-4.56 z" /><path
         inkscape:connector-curvature="0"
         id="path28771"
         style="fill:none;stroke:#000000;stroke-width:0.70504802;stroke-linecap:round;stroke-linejoin:round;stroke-miterlimit:10;stroke-dasharray:none;stroke-opacity:1"
         d="m 273.6,485.4 0,-4.56" /><path
         inkscape:connector-curvature="0"
         id="path28773"
         style="fill:none;stroke:#000000;stroke-width:0.70504802;stroke-linecap:round;stroke-linejoin:round;stroke-miterlimit:10;stroke-dasharray:none;stroke-opacity:1"
         d="m 280.44,485.4 -0.12,-4.56" /><path
         inkscape:connector-curvature="0"
         id="path28775"
         style="fill:#ffffff;fill-opacity:1;fill-rule:evenodd;stroke:none"
         d="m 276.96,492.12 c -3.72,0 -6.72,-1.44 -6.72,-3.36 0,-1.8 3,-3.36 6.72,-3.36 3.72,0 6.72,1.56 6.72,3.36 0,1.92 -3,3.36 -6.72,3.36" /><path
         inkscape:connector-curvature="0"
         id="path28777"
         style="fill:none;stroke:#000000;stroke-width:0.70504802;stroke-linecap:round;stroke-linejoin:round;stroke-miterlimit:10;stroke-dasharray:none;stroke-opacity:1"
         d="m 276.96,492.12 c -3.72,0 -6.72,-1.44 -6.72,-3.36 0,-1.8 3,-3.36 6.72,-3.36 3.72,0 6.72,1.56 6.72,3.36 0,1.92 -3,3.36 -6.72,3.36 z" /></g></svg>